<svg width="323" height="72" viewBox="0 0 323 72" fill="none" xmlns="http://www.w3.org/2000/svg">
<path d="M43.4464 61H29.2482L25.9554 59.5982L21.9661 61H6.55357C5.67428 61.0017 4.80368 60.826 3.99393 60.4832C3.18418 60.1405 2.45194 59.6378 1.84107 59.0054L2.46964 53.5696L0 40.1607V17.5536C0 13.9286 2.92857 11 6.55357 11H25.9214L38.4196 14.8429L49.5696 15.2089C49.8482 15.9357 50 16.7268 50 17.5536V18.4643L47.3161 24.5786L50 27.1679V54.4464C50 58.0714 47.0714 61 43.4464 61Z" fill="#212233"/>
<path d="M43.4464 11H25.8929C20.5357 16.2321 16.8929 21.375 13.6964 25.8929C9.42857 31.9464 6.14286 36.5893 0 40.1429V54.4464C0 56.2143 0.714286 57.8214 1.85714 59.0179C16.2321 53.2143 22.3571 44.5893 28.2857 36.1964C33.4286 28.9107 38.3036 22.0179 49.5536 15.2143C49.0835 13.9751 48.2475 12.9082 47.1567 12.1555C46.0658 11.4028 44.7718 10.9997 43.4464 11ZM21.9464 61H29.2679C33.1964 44.3571 40.8571 34.1964 50 27.1786V18.4286C37.7857 26.4286 26.8036 38.7321 21.9464 61ZM10.6964 17.25C10.6964 17.4868 10.6024 17.7139 10.4349 17.8813C10.2675 18.0488 10.0404 18.1429 9.80357 18.1429C9.56677 18.1429 9.33967 18.0488 9.17223 17.8813C9.00478 17.7139 8.91071 17.4868 8.91071 17.25C8.91071 17.0132 9.00478 16.7861 9.17223 16.6187C9.33967 16.4512 9.56677 16.3571 9.80357 16.3571C10.0404 16.3571 10.2675 16.4512 10.4349 16.6187C10.6024 16.7861 10.6964 17.0132 10.6964 17.25ZM42.8393 42.25C42.8393 42.4868 42.7452 42.7139 42.5778 42.8813C42.4103 43.0488 42.1832 43.1429 41.9464 43.1429C41.7096 43.1429 41.4825 43.0488 41.3151 42.8813C41.1476 42.7139 41.0536 42.4868 41.0536 42.25C41.0536 42.0132 41.1476 41.7861 41.3151 41.6187C41.4825 41.4512 41.7096 41.3571 41.9464 41.3571C42.1832 41.3571 42.4103 41.4512 42.5778 41.6187C42.7452 41.7861 42.8393 42.0132 42.8393 42.25ZM36.5893 53.8571C36.8261 53.8571 37.0532 53.7631 37.2206 53.5956C37.3881 53.4282 37.4821 53.2011 37.4821 52.9643C37.4821 52.7275 37.3881 52.5004 37.2206 52.3329C37.0532 52.1655 36.8261 52.0714 36.5893 52.0714C36.3525 52.0714 36.1254 52.1655 35.9579 52.3329C35.7905 52.5004 35.6964 52.7275 35.6964 52.9643C35.6964 53.2011 35.7905 53.4282 35.9579 53.5956C36.1254 53.7631 36.3525 53.8571 36.5893 53.8571ZM46.4107 51.1786C46.4107 51.4154 46.3166 51.6425 46.1492 51.8099C45.9818 51.9774 45.7547 52.0714 45.5179 52.0714C45.2811 52.0714 45.054 51.9774 44.8865 51.8099C44.7191 51.6425 44.625 51.4154 44.625 51.1786C44.625 50.9418 44.7191 50.7147 44.8865 50.5472C45.054 50.3798 45.2811 50.2857 45.5179 50.2857C45.7547 50.2857 45.9818 50.3798 46.1492 50.5472C46.3166 50.7147 46.4107 50.9418 46.4107 51.1786ZM4.44643 27.0714C4.68323 27.0714 4.91033 26.9774 5.07777 26.8099C5.24522 26.6425 5.33929 26.4154 5.33929 26.1786C5.33929 25.9418 5.24522 25.7147 5.07777 25.5472C4.91033 25.3798 4.68323 25.2857 4.44643 25.2857C4.20963 25.2857 3.98253 25.3798 3.81508 25.5472C3.64764 25.7147 3.55357 25.9418 3.55357 26.1786C3.55357 26.4154 3.64764 26.6425 3.81508 26.8099C3.98253 26.9774 4.20963 27.0714 4.44643 27.0714Z" fill="#005283"/>
<path d="M24.7502 23.1252L24.0895 22.8038C24.0452 22.786 24.0049 22.7594 23.9712 22.7257C23.9374 22.6919 23.9109 22.6517 23.8931 22.6074L23.5716 21.9466C23.4109 21.6252 22.9645 21.6252 22.8216 21.9466L22.5359 22.5538C22.5002 22.6431 22.4288 22.7145 22.3395 22.7502L21.6431 23.0895C21.3395 23.2502 21.3395 23.6966 21.6431 23.8395L22.2859 24.1431C22.3752 24.1788 22.4466 24.2502 22.4824 24.3395L22.8216 25.0359C22.9824 25.3395 23.4109 25.3395 23.5716 25.0359L23.8931 24.3752C23.9288 24.2859 24.0002 24.2145 24.0895 24.1788L24.7502 23.8574C25.0716 23.7145 25.0716 23.2681 24.7502 23.1252ZM15.6966 41.6788L14.6966 41.1966C14.569 41.1405 14.4671 41.0386 14.4109 40.9109L13.9466 39.9288C13.7145 39.4645 13.0359 39.4645 12.8216 39.9288L12.3931 40.8574C12.3395 40.9824 12.2324 41.0895 12.1074 41.1431L11.0538 41.6609C10.5895 41.8931 10.5895 42.5538 11.0538 42.7859L12.0002 43.2324C12.1252 43.2859 12.2324 43.3931 12.2859 43.5181L12.8038 44.5538C13.0359 45.0181 13.6966 45.0181 13.9288 44.5538L14.4109 43.5538C14.4645 43.4288 14.5716 43.3216 14.6966 43.2681L15.6966 42.7859C16.1788 42.5716 16.1788 41.8931 15.6966 41.6788ZM34.8038 38.8752L35.4645 39.1966C35.7859 39.3395 35.7859 39.7859 35.4645 39.9288L34.8038 40.2502C34.7145 40.2859 34.6431 40.3574 34.6074 40.4466L34.2859 41.1074C34.1252 41.4109 33.6966 41.4109 33.5359 41.1074L33.1966 40.4109C33.1789 40.3666 33.1523 40.3264 33.1185 40.2926C33.0848 40.2588 33.0445 40.2323 33.0002 40.2145L32.3574 39.9109C32.0538 39.7681 32.0538 39.3216 32.3574 39.1609L33.0538 38.8216C33.1431 38.7859 33.2145 38.7145 33.2502 38.6252L33.5359 38.0181C33.6788 37.6966 34.1252 37.6966 34.2859 38.0181L34.6074 38.6788C34.6431 38.7681 34.7145 38.8395 34.8038 38.8752Z" fill="#FCD53F"/>
<path d="M36.5893 19.2325L37.25 19.5539C37.5714 19.6968 37.5714 20.1432 37.25 20.2861L36.5893 20.6075C36.5 20.6432 36.4285 20.7146 36.3928 20.8039L36.0714 21.4646C35.9107 21.7682 35.4821 21.7682 35.3214 21.4646L34.9821 20.7682C34.9643 20.7239 34.9378 20.6837 34.904 20.6499C34.8702 20.6161 34.83 20.5896 34.7857 20.5718L34.1428 20.2682C33.8393 20.1253 33.8393 19.6789 34.1428 19.5182L34.8393 19.1789C34.9285 19.1432 35 19.0718 35.0357 18.9825L35.3214 18.3753C35.4643 18.0539 35.9107 18.0539 36.0714 18.3753L36.3928 19.0361C36.4285 19.1253 36.5 19.1968 36.5893 19.2325ZM22.3035 37.0896L22.9643 37.4111C23.2857 37.5539 23.2857 38.0004 22.9643 38.1432L22.3035 38.4646C22.2143 38.5003 22.1428 38.5718 22.1071 38.6611L21.7857 39.3218C21.625 39.6253 21.1964 39.6253 21.0357 39.3218L20.6964 38.6253C20.6786 38.581 20.652 38.5408 20.6183 38.507C20.5845 38.4733 20.5443 38.4467 20.5 38.4289L19.8571 38.1253C19.5535 37.9825 19.5535 37.5361 19.8571 37.3753L20.5535 37.0361C20.6428 37.0003 20.7143 36.9289 20.75 36.8396L21.0357 36.2325C21.1785 35.9111 21.625 35.9111 21.7857 36.2325L22.1071 36.8932C22.1428 36.9825 22.2143 37.0539 22.3035 37.0896ZM29.4464 28.8575C29.6832 28.8575 29.9103 28.7634 30.0777 28.596C30.2452 28.4285 30.3393 28.2014 30.3393 27.9646C30.3393 27.7278 30.2452 27.5007 30.0777 27.3333C29.9103 27.1658 29.6832 27.0718 29.4464 27.0718C29.2096 27.0718 28.9825 27.1658 28.815 27.3333C28.6476 27.5007 28.5535 27.7278 28.5535 27.9646C28.5535 28.2014 28.6476 28.4285 28.815 28.596C28.9825 28.7634 29.2096 28.8575 29.4464 28.8575ZM15.1607 32.4289C15.3975 32.4289 15.6246 32.3349 15.792 32.1674C15.9595 32 16.0535 31.7729 16.0535 31.5361C16.0535 31.2993 15.9595 31.0722 15.792 30.9047C15.6246 30.7373 15.3975 30.6432 15.1607 30.6432C14.9239 30.6432 14.6968 30.7373 14.5293 30.9047C14.3619 31.0722 14.2678 31.2993 14.2678 31.5361C14.2678 31.7729 14.3619 32 14.5293 32.1674C14.6968 32.3349 14.9239 32.4289 15.1607 32.4289ZM30.3393 49.3932C30.3393 49.63 30.2452 49.8571 30.0777 50.0246C29.9103 50.192 29.6832 50.2861 29.4464 50.2861C29.2096 50.2861 28.9825 50.192 28.815 50.0246C28.6476 49.8571 28.5535 49.63 28.5535 49.3932C28.5535 49.1564 28.6476 48.9293 28.815 48.7619C28.9825 48.5944 29.2096 48.5003 29.4464 48.5003C29.6832 48.5003 29.9103 48.5944 30.0777 48.7619C30.2452 48.9293 30.3393 49.1564 30.3393 49.3932Z" fill="#26EAFC"/>
<path fill-rule="evenodd" clip-rule="evenodd" d="M35.6965 13.6785C35.6965 13.9153 35.6024 14.1424 35.435 14.3098C35.2675 14.4773 35.0404 14.5714 34.8036 14.5714C34.5668 14.5714 34.3397 14.4773 34.1723 14.3098C34.0049 14.1424 33.9108 13.9153 33.9108 13.6785C33.9108 13.4417 34.0049 13.2146 34.1723 13.0472C34.3397 12.8797 34.5668 12.7856 34.8036 12.7856C35.0404 12.7856 35.2675 12.8797 35.435 13.0472C35.6024 13.2146 35.6965 13.4417 35.6965 13.6785ZM43.7322 28.8571C43.969 28.8571 44.1961 28.763 44.3636 28.5956C44.531 28.4281 44.6251 28.201 44.6251 27.9642C44.6251 27.7274 44.531 27.5003 44.3636 27.3329C44.1961 27.1654 43.969 27.0714 43.7322 27.0714C43.4954 27.0714 43.2683 27.1654 43.1009 27.3329C42.9334 27.5003 42.8394 27.7274 42.8394 27.9642C42.8394 28.201 42.9334 28.4281 43.1009 28.5956C43.2683 28.763 43.4954 28.8571 43.7322 28.8571ZM6.23221 50.2856C5.99541 50.2856 5.76831 50.1916 5.60087 50.0241C5.43342 49.8567 5.33936 49.6296 5.33936 49.3928C5.33936 49.156 5.43342 48.9289 5.60087 48.7614C5.76831 48.594 5.99541 48.4999 6.23221 48.4999C6.46901 48.4999 6.69612 48.594 6.86356 48.7614C7.031 48.9289 7.12507 49.156 7.12507 49.3928C7.12507 49.6296 7.031 49.8567 6.86356 50.0241C6.69612 50.1916 6.46901 50.2856 6.23221 50.2856Z" fill="#F4F4F4"/>
<path d="M102.192 19.16V53H92.784V34.328L86.4 53H78.528L72.096 34.184V53H62.688V19.16H74.064L82.56 41.144L90.864 19.16H102.192ZM112.299 23.576C110.635 23.576 109.291 23.128 108.267 22.232C107.275 21.304 106.779 20.152 106.779 18.776C106.779 17.368 107.275 16.2 108.267 15.272C109.291 14.344 110.635 13.88 112.299 13.88C113.931 13.88 115.243 14.344 116.235 15.272C117.259 16.2 117.771 17.368 117.771 18.776C117.771 20.152 117.259 21.304 116.235 22.232C115.243 23.128 113.931 23.576 112.299 23.576ZM116.955 26.072V53H107.547V26.072H116.955ZM131.721 17.48V53H122.313V17.48H131.721ZM153.927 53L146.487 41.96V53H137.079V17.48H146.487V36.632L153.927 26.072H165.207L154.599 39.608L165.399 53H153.927ZM197.149 26.072L180.061 65.816H169.837L176.269 51.848L165.229 26.072H175.693L181.357 41.336L186.829 26.072H197.149ZM256.461 19.16L248.157 53H236.589L231.933 32.264L227.181 53H215.613L207.405 19.16H217.581L221.517 42.296L226.845 19.16H237.165L242.349 42.104L246.285 19.16H256.461ZM258.918 39.512C258.918 36.728 259.414 34.296 260.406 32.216C261.43 30.136 262.806 28.536 264.534 27.416C266.294 26.296 268.246 25.736 270.39 25.736C272.246 25.736 273.846 26.104 275.19 26.84C276.534 27.576 277.574 28.568 278.31 29.816V26.072H287.718V53H278.31V49.256C277.574 50.504 276.518 51.496 275.142 52.232C273.798 52.968 272.214 53.336 270.39 53.336C268.246 53.336 266.294 52.776 264.534 51.656C262.806 50.536 261.43 48.936 260.406 46.856C259.414 44.744 258.918 42.296 258.918 39.512ZM278.31 39.512C278.31 37.784 277.83 36.424 276.87 35.432C275.942 34.44 274.79 33.944 273.414 33.944C272.006 33.944 270.838 34.44 269.91 35.432C268.982 36.392 268.518 37.752 268.518 39.512C268.518 41.24 268.982 42.616 269.91 43.64C270.838 44.632 272.006 45.128 273.414 45.128C274.79 45.128 275.942 44.632 276.87 43.64C277.83 42.648 278.31 41.272 278.31 39.512ZM322.071 26.072L304.983 65.816H294.759L301.191 51.848L290.151 26.072H300.615L306.279 41.336L311.751 26.072H322.071Z" fill="black"/>
</svg>
